:SAMPLES-PER-SECOND 30
:FULLY-SPECIFIED
:DEGREES
65
root  29.8127 37.9047 -9.17415 -8.43818 -79.6564 1.70261
RightUpLeg  -23.6893 -21.6607 5.62861
RightLeg  19.5146 -2.67704 -1.12375
RightFoot  5.00758 1.20727 -8.21081
RightToes  2.91037e-010 0 -3.6325e-017
Spine  8.44515 -2.70242 2.62553
Spine1  12.2849 -3.74398 3.30116
HEad  1.83372 1.72094 -4.41125
LeftShoulder1  8.92785 -13.1077 -46.8951
LeftArm  3.05089 -6.64586 -34.1765
LeftForeArm  29.8893 -29.0525 -4.61594
LeftHand  -0.244104 0.0205437 5.32207
RightShoulder  5.05551 8.68285 35.5135
RightArm  -11.5129 -17.2442 37.1827
RightForeArm  19.4441 7.09936 5.26307
RightHand  -0.310755 -1.71656 -9.66602
LeftUpLeg  23.0037 14.1046 5.9235
LeftLeg  25.7702 -1.66483 -0.457822
LeftFoot  -10.6039 0.152024 -13.4291
LeftToes  1.46425e-010 1.43544e-010 6.23391e-011
66
root  27.9023 37.9054 -9.16294 0.492627 -80.0973 -7.26747
RightUpLeg  -23.2656 -19.8933 6.9371
RightLeg  24.5913 -4.00539 -2.2802
RightFoot  2.09744 1.23934 -10.3494
RightToes  2.91037e-010 0 -3.6325e-017
Spine  8.07703 -2.81684 5.05188
Spine1  12.0574 -3.54621 3.56495
HEad  2.49381 1.91452 -4.42909
LeftShoulder1  8.83404 -12.8685 -47.0836
LeftArm  3.70014 -2.45532 -33.5249
LeftForeArm  26.6787 -23.6229 -3.96192
LeftHand  -0.244104 0.0205437 5.32207
RightShoulder  5.04884 8.67914 35.4723
RightArm  -11.9338 -18.4623 36.7262
RightForeArm  18.1878 7.29027 5.22928
RightHand  -0.263678 -2.15949 -9.17444
LeftUpLeg  18.1859 11.8699 7.41482
LeftLeg  36.2582 0.757813 0.997578
LeftFoot  1.66531 1.46364 -13.2713
LeftToes  1.46425e-010 1.43544e-010 6.23391e-011
67
root  26.2528 37.8415 -9.20657 9.00299 -79.2984 -15.6902
RightUpLeg  -22.3805 -20.2651 8.35358
RightLeg  28.3003 -4.82921 -3.04734
RightFoot  -2.16449 0.844407 -10.6165
RightToes  2.91037e-010 0 -3.6325e-017
Spine  8.11923 -3.18315 7.06933
Spine1  12.0789 -3.58283 4.45642
HEad  2.64641 1.43609 -3.60219
LeftShoulder1  8.83681 -12.8133 -47.2609
LeftArm  0.842869 0.750975 -32.5034
LeftForeArm  26.9416 -17.0376 -5.08647
LeftHand  -0.244104 0.0205437 5.32207
RightShoulder  5.05923 8.69735 35.4952
RightArm  -12.273 -18.4065 36.5451
RightForeArm  17.6759 7.2566 5.16868
RightHand  -0.181845 -2.98102 -8.24446
LeftUpLeg  10.6643 8.02897 7.87285
LeftLeg  48.1244 2.38737 3.25694
LeftFoot  13.283 2.12856 -10.075
LeftToes  1.46425e-010 1.43544e-010 6.23391e-011
68
root  24.6923 37.9034 -9.23095 14.9869 -78.3196 -21.9092
RightUpLeg  -20.3105 -21.5986 9.36544
RightLeg  30.0902 -4.43991 -3.03256
RightFoot  -5.58245 0.464808 -9.9578
RightToes  2.91037e-010 0 -3.6325e-017
Spine  8.41224 -3.35679 9.24492
Spine1  12.3611 -3.27408 4.8061
HEad  2.37004 0.202653 -2.38542
LeftShoulder1  8.9815 -12.9613 -47.6097
LeftArm  -5.04776 2.98463 -30.883
LeftForeArm  31.5351 -10.1884 -6.86541
LeftHand  -0.244104 0.0205437 5.32207
RightShoulder  5.06504 8.65867 35.6712
RightArm  -12.3263 -17.3007 36.4986
RightForeArm  17.2229 7.38315 5.20377
RightHand  -0.16751 -3.23329 -8.33512
LeftUpLeg  3.35739 4.18919 8.07338
LeftLeg  58.2302 2.73267 5.27606
LeftFoot  16.7473 1.71774 -7.2104
LeftToes  1.46425e-010 1.43544e-010 6.23391e-011
69
root  23.0233 38.251 -9.24207 16.8401 -78.9384 -24.2898
RightUpLeg  -16.2915 -21.4942 8.86473
RightLeg  29.496 -3.85481 -2.62734
RightFoot  -7.78598 0.233555 -9.19329
RightToes  2.91037e-010 0 -3.6325e-017
Spine  8.54278 -2.71885 10.3417
Spine1  12.6438 -2.16774 4.0685
HEad  2.19463 -1.09636 -1.39868
LeftShoulder1  9.0968 -13.0998 -47.823
LeftArm  -6.468 5.38283 -29.4124
LeftForeArm  33.4201 -5.63559 -6.90518
LeftHand  -0.244104 0.0205437 5.32207
RightShoulder  5.09564 8.66277 35.9031
RightArm  -11.7472 -15.4053 36.4988
RightForeArm  16.4325 7.71443 5.45772
RightHand  -0.22406 -2.78543 -9.5243
LeftUpLeg  -2.40376 2.24095 7.5392
LeftLeg  64.5263 2.84018 7.12909
LeftFoot  13.5599 1.01116 -4.94733
LeftToes  1.46425e-010 1.43544e-010 6.23391e-011
70
root  21.3369 38.6579 -9.2575 16.1104 -80.9325 -23.9174
RightUpLeg  -11.6872 -20.3132 7.34174
RightLeg  27.8008 -3.35131 -2.09562
RightFoot  -9.61631 0.061692 -8.36695
RightToes  2.91037e-010 0 -3.6325e-017
Spine  8.447 -1.71147 10.36
Spine1  12.806 -0.707234 2.81309
HEad  2.487 -1.6837 -0.956764
LeftShoulder1  9.0281 -13.0473 -47.608
LeftArm  -6.01303 8.95052 -28.1877
LeftForeArm  34.4175 -4.29415 -6.74959
LeftHand  -0.244104 0.0205437 5.32207
RightShoulder  5.15107 8.76725 35.9966
RightArm  -10.3522 -12.9351 36.6844
RightForeArm  15.7681 8.29599 5.92535
RightHand  -0.310412 -2.10851 -10.7542
LeftUpLeg  -7.27309 1.61426 6.31576
LeftLeg  66.821 2.99823 8.3688
LeftFoot  9.21854 0.624108 -3.76866
LeftToes  1.46425e-010 1.43544e-010 6.23391e-011
71
root  19.6868 38.9684 -9.25376 14.8669 -83.1034 -22.7225
RightUpLeg  -7.47917 -18.7467 5.47968
RightLeg  26.1052 -3.09892 -0.996485
RightFoot  -11.3477 -0.0773629 -7.63154
RightToes  2.91037e-010 0 -3.6325e-017
Spine  8.13627 -0.917255 10.3861
Spine1  12.7756 0.560333 1.41571
HEad  2.99993 -1.49825 -1.0422
LeftShoulder1  8.85075 -12.8714 -47.1662
LeftArm  -5.44853 13.5054 -26.9162
LeftForeArm  35.1042 -5.31934 -6.79748
LeftHand  -0.244104 0.0205437 5.32207
RightShoulder  5.15953 8.83247 35.8464
RightArm  -7.91538 -10.2314 37.2036
RightForeArm  15.0226 9.70247 6.4661
RightHand  -0.398846 -1.4447 -11.6265
LeftUpLeg  -11.7539 1.05043 4.99461
LeftLeg  65.8346 3.17721 8.41631
LeftFoot  6.63286 0.408301 -2.8326
LeftToes  1.46425e-010 1.43544e-010 6.23391e-011
72
root  18.0397 39.2615 -9.23552 14.1489 -85.3113 -21.9318
RightUpLeg  -3.33564 -15.7248 3.6085
RightLeg  23.9498 -3.88389 0.508206
RightFoot  -12.5563 -0.1613 -7.17746
RightToes  2.91037e-010 0 -3.6325e-017
Spine  7.6697 -0.20214 10.6791
Spine1  12.6618 1.72236 -0.278742
HEad  3.26191 -0.974429 -1.51224
LeftShoulder1  8.70315 -12.7169 -46.8134
LeftArm  -4.70818 18.1853 -25.5492
LeftForeArm  34.8636 -7.23383 -6.90522
LeftHand  -0.244104 0.0205437 5.32207
RightShoulder  5.09634 8.75457 35.6021
RightArm  -3.61547 -7.6 37.8323
RightForeArm  12.4332 12.5967 6.69616
RightHand  -0.477197 -0.90915 -12.3244
LeftUpLeg  -15.4164 0.665069 3.85709
LeftLeg  61.8457 3.40183 7.47651
LeftFoot  4.36493 0.195545 -1.60938
LeftToes  1.46425e-010 1.43544e-010 6.23391e-011
73
root  16.4131 39.5327 -9.22558 21.0791 -87.8412 -28.774
RightUpLeg  0.791227 -12.4596 2.05152
RightLeg  21.1935 -4.3902 1.78568
RightFoot  -13.4454 -0.215142 -6.77848
RightToes  2.91037e-010 0 -3.6325e-017
Spine  7.18223 0.675436 10.7715
Spine1  12.6465 2.9453 -2.09053
HEad  3.14755 -0.373003 -2.19086
LeftShoulder1  8.57325 -12.5816 -46.4938
LeftArm  -3.87896 22.5155 -24.5495
LeftForeArm  33.4259 -9.10678 -6.84183
LeftHand  -0.244104 0.0205437 5.32207
RightShoulder  5.04468 8.65509 35.5191
RightArm  2.74346 -5.05874 38.1674
RightForeArm  7.05653 16.7899 6.09786
RightHand  -0.521088 -0.641948 -12.7281
LeftUpLeg  -17.9261 1.00138 2.9701
LeftLeg  54.75 3.63709 6.00543
LeftFoot  1.93442 0.144646 -1.36391
LeftToes  1.46425e-010 1.43544e-010 6.23391e-011
74
root  14.8154 39.6472 -9.21586 -147.918 -89.8735 140.431
RightUpLeg  4.40918 -10.6107 0.773135
RightLeg  18.9616 -3.72312 2.79357
RightFoot  -14.6429 -0.277055 -6.18661
RightToes  2.91037e-010 0 -3.6325e-017
Spine  6.55522 1.45273 10.715
Spine1  12.7523 3.91899 -3.48302
HEad  2.83114 0.261831 -2.88691
LeftShoulder1  8.40796 -12.418 -46.0528
LeftArm  -3.47039 26.3905 -24.3282
LeftForeArm  31.1739 -10.5818 -6.55096
LeftHand  -0.244104 0.0205437 5.32207
RightShoulder  5.0552 8.67109 35.5504
RightArm  8.23216 -2.55115 38.159
RightForeArm  1.98594 21.2073 5.13983
RightHand  -0.535921 -0.52221 -12.7774
LeftUpLeg  -19.3913 1.93859 2.44514
LeftLeg  44.7973 3.69026 4.31349
LeftFoot  0.892293 0.236868 -2.25344
LeftToes  1.46425e-010 1.43544e-010 6.23391e-011
75
root  13.2152 39.6217 -9.20059 175.779 -88.2619 177.115
RightUpLeg  7.54897 -9.96834 -0.277605
RightLeg  17.357 -2.43742 3.66739
RightFoot  -15.9163 -0.338294 -5.75848
RightToes  2.91037e-010 0 -3.6325e-017
Spine  5.58048 1.95874 10.7033
Spine1  13.0183 4.45438 -4.41548
HEad  2.46637 0.813506 -3.48199
LeftShoulder1  8.26247 -12.2809 -45.6355
LeftArm  -3.89525 29.5811 -24.7106
LeftForeArm  29.2233 -11.3368 -6.21427
LeftHand  -0.244104 0.0205437 5.32207
RightShoulder  5.06228 8.73174 35.4053
RightArm  9.63519 -0.223136 38.0735
RightForeArm  1.07278 25.1191 5.25001
RightHand  -0.558252 -0.339801 -12.8437
LeftUpLeg  -19.7925 3.72613 1.91468
LeftLeg  32.417 2.9976 2.53964
LeftFoot  1.01042 0.300001 -2.82943
LeftToes  1.46425e-010 1.43544e-010 6.23391e-011
76
root  11.6245 39.5891 -9.19361 -176.941 -86.9586 170.188
RightUpLeg  10.8492 -9.674 -1.37108
RightLeg  15.3389 -0.874883 4.23914
RightFoot  -16.7885 -0.382888 -5.65352
RightToes  2.91037e-010 0 -3.6325e-017
Spine  4.53305 2.41842 10.4065
Spine1  13.5679 4.93677 -5.34724
HEad  2.15102 1.24023 -3.9391
LeftShoulder1  8.16686 -12.1698 -45.4193
LeftArm  -4.95942 31.8764 -25.2934
LeftForeArm  28.4118 -11.2036 -5.96082
LeftHand  -0.244104 0.0205437 5.32207
RightShoulder  5.02045 8.72218 35.1011
RightArm  8.99822 1.75071 38.069
RightForeArm  2.44213 28.5465 6.05186
RightHand  -0.597963 -0.105009 -13.1638
LeftUpLeg  -18.9163 6.4361 1.08607
LeftLeg  18.0402 2.37046 0.642822
LeftFoot  1.19596 0.342222 -3.17676
LeftToes  1.46425e-010 1.43544e-010 6.23391e-011
77
root  10.0155 39.4832 -9.17475 -173.885 -85.5166 167.231
RightUpLeg  14.3026 -9.67759 -2.83556
RightLeg  13.6043 1.13429 4.50865
RightFoot  -17.8911 -0.409687 -5.06821
RightToes  2.91037e-010 0 -3.6325e-017
Spine  3.84478 2.82237 9.96692
Spine1  14.1983 5.5916 -6.47325
HEad  1.97139 1.71328 -4.19177
LeftShoulder1  8.0172 -11.9377 -45.2489
LeftArm  -6.34102 33.3507 -25.9741
LeftForeArm  28.516 -10.4022 -5.7408
LeftHand  -0.244104 0.0205437 5.32207
RightShoulder  4.99003 8.67738 35.0042
RightArm  8.55132 3.46611 38.0758
RightForeArm  3.63116 31.1265 6.62313
RightHand  -0.655503 0.216656 -13.621
LeftUpLeg  -17.018 6.01234 1.60623
LeftLeg  3.82472 7.7023 -2.52131
LeftFoot  1.05007 0.457898 -4.28881
LeftToes  1.46425e-010 1.43544e-010 6.23391e-011
78
root  8.31446 39.1949 -9.09831 -176.163 -84.5285 169.393
RightUpLeg  17.4528 -10.3224 -4.4156
RightLeg  13.5058 3.47847 4.82537
RightFoot  -19.3554 -0.384966 -3.62839
RightToes  2.91037e-010 0 -3.6325e-017
Spine  3.38369 2.93826 10.1906
Spine1  14.4875 6.0318 -7.60808
HEad  1.87193 2.22978 -4.15743
LeftShoulder1  7.77082 -11.5683 -44.9185
LeftArm  -7.80136 34.1353 -26.7809
LeftForeArm  28.5802 -9.35435 -5.45308
LeftHand  -0.244104 0.0205437 5.32207
RightShoulder  5.00713 8.66775 35.1741
RightArm  8.15698 4.90798 38.2754
RightForeArm  4.41938 32.3131 6.88561
RightHand  -0.741534 0.730211 -14.1408
LeftUpLeg  -15.8433 2.90573 2.98547
LeftLeg  -5.25438 18.2809 -6.6312
LeftFoot  -0.704872 0.504585 -5.37378
LeftToes  1.46425e-010 1.43544e-010 6.23391e-011
79
root  6.5299 38.8521 -8.99069 -178.166 -84.5569 171.358
RightUpLeg  20.1769 -11.4692 -5.99385
RightLeg  14.5951 5.58185 5.05914
RightFoot  -20.1326 -0.291285 -2.00659
RightToes  2.91037e-010 0 -3.6325e-017
Spine  2.75195 2.73365 10.4796
Spine1  14.7264 6.08473 -8.47691
HEad  1.69763 2.4374 -3.84929
LeftShoulder1  7.57914 -11.3014 -44.5856
LeftArm  -9.00432 34.2695 -27.4667
LeftForeArm  28.1645 -8.43917 -5.11879
LeftHand  -0.244104 0.0205437 5.32207
RightShoulder  5.02546 8.6829 35.2717
RightArm  7.29388 5.55667 38.8327
RightForeArm  4.79579 32.3876 6.8846
RightHand  -0.817208 1.14105 -14.6227
LeftUpLeg  -16.6028 3.34138 2.18436
LeftLeg  -5.65694 24.7251 -8.07204
LeftFoot  -3.18573 0.366816 -4.83948
LeftToes  1.46425e-010 1.43544e-010 6.23391e-011
